<svg version="1" xmlns="http://www.w3.org/2000/svg" width="5461.333" height="5461.333" viewBox="0 0 4096.000000 4096.000000"><path d="M1943.5 1.1c-26.7 1.4-72.6 4.9-99 7.5-517.2 51-992.9 296-1338.2 689.2-100.4 114.4-189.9 243.1-263 378.2-136.8 252.9-218.9 535.1-239.2 822-3.6 51.1-4.1 68-4.1 149.9 0 82.3.5 99.8 4.1 150.1C41 2715.1 274 3198.6 657 3553c185.4 171.5 402.3 308.3 635 400.5 67.4 26.7 139.8 51 208 69.9 146.6 40.5 293.3 64 448 71.7 14.7.7 54.3.9 114.5.6 95.9-.4 100.8-.6 162-5.7 402.3-33.9 787.1-187.8 1103-441.1 61.3-49.2 111.6-94.1 166.5-148.9 31.3-31.2 87.6-89.7 89.3-92.7.7-1.2 7.2-8.6 14.5-16.6 7.2-8 13.2-14.8 13.2-15.2 0-.4 3.6-4.7 8-9.5s8-9.1 8-9.5c0-.4 4.3-5.6 9.5-11.5s9.5-11.1 9.5-11.5c0-.4 2.5-3.5 5.5-7 3-3.4 5.5-6.6 5.5-7 0-.4 2.3-3.3 5-6.5 2.8-3.2 5-6.1 5-6.5 0-.3 3.4-4.6 7.5-9.5s7.5-9.2 7.5-9.5c0-.4 1.9-3 4.3-5.8 2.3-2.8 4.2-5.3 4.2-5.7 0-.3 2.8-4 6.3-8.2 3.4-4.2 6.2-7.9 6.2-8.3 0-.4 1.6-2.6 3.5-4.9 1.9-2.4 3.5-4.6 3.5-5 0-.4 1.8-2.9 4-5.5s4-5 4-5.4c0-.4 2.2-3.6 5-7.1 2.7-3.5 5-6.7 5-7.1 0-.3 1.6-2.6 3.5-4.9 1.9-2.4 3.5-4.6 3.5-5 0-.4 2-3.3 4.5-6.5 2.5-3.1 4.5-6.1 4.5-6.5 0-.5 1.3-2.5 3-4.6 1.6-2.1 3-4.1 3-4.5 0-.4 1.4-2.4 3-4.5 1.7-2.1 3-4.1 3-4.6 0-.4 1.8-3.1 4-6s4-5.6 4-6c0-.3 1.4-2.3 3-4.4 1.7-2.1 3-4.1 3-4.6 0-.4 1.8-3.1 4-6.1 2.3-2.9 3.8-5.3 3.4-5.3-.3 0 .9-1.8 2.6-4 1.7-2.2 2.9-4 2.6-4-.4 0 1.1-2.4 3.4-5.3 2.2-3 4-5.7 4-6.1 0-.5 1-2.2 2.2-3.9 1.3-1.8 2.3-3.4 2.3-3.7 0-.3 1-1.9 2.3-3.7 1.2-1.7 2.2-3.4 2.2-3.8 0-.4.8-1.9 1.9-3.3 1.7-2.5 2.8-4.4 8.2-14 1.2-2 2.7-4.4 3.4-5.2.7-.8 2.2-3.2 3.4-5.2 1.2-2.1 3-5.5 4.2-7.5 1.2-2.1 2.6-4.4 3.1-5 .6-.7.8-1.3.4-1.3-.3 0 .7-1.9 2.4-4.2 1.6-2.2 3-4.6 3-5.1 0-.6 1.1-2.5 2.6-4.4 1.4-1.8 2.2-3.3 1.9-3.3-.3 0 .8-2 2.5-4.4 1.6-2.5 3-4.8 3-5.1 0-.4.9-2 2.1-3.6 1.1-1.6 1.7-2.9 1.4-2.9-.3 0 .2-1.2 1.3-2.8 1-1.5 2.6-4.1 3.4-5.7 4.5-8.8 9.1-17.1 10.9-19.7 1.1-1.5 1.7-2.8 1.4-2.8-.3 0 .3-1.4 1.5-3 1.2-1.7 1.8-3 1.4-3-.3 0-.1-.6.5-1.4 2.2-2.6 37.5-72.6 37.6-74.6.1-.3.7-1.6 1.5-3s1.5-2.7 1.5-3c.1-.3 1.8-4.1 3.9-8.5 2.1-4.4 4.7-10 5.8-12.5 1.1-2.5 4-8.6 6.4-13.7 2.4-5.1 4.4-9.4 4.4-9.7 0-.3 1.1-2.9 2.3-5.8 1.3-2.9 2.4-5.6 2.5-6.1.1-.4.8-2.1 1.7-3.7.8-1.7 2.2-4.4 3.1-6 .8-1.7 1.2-3 .8-3-.3 0-.2-.6.4-1.3.8-1 6.6-13.9 7.1-15.9.1-.4 1.1-2.9 2.2-5.5 1.2-2.7 2.2-5.3 2.3-5.8.2-.6 1.3-3.2 2.4-5.8 1.2-2.7 2.2-5.3 2.2-5.8s.7-2.1 1.6-3.4c.9-1.4 1.3-2.5 1-2.5-.4 0-.1-1.2.8-2.8.8-1.5 3.3-7.7 5.6-13.7 2.4-6.1 4.6-11.9 5-13 2.7-6.9 3.5-9.1 3.5-9.5 0-.3.6-1.5 1.3-2.7.7-1.3 1.1-2.3.8-2.3-.3 0 .6-2.4 1.9-5.3 1.2-2.9 3.2-8.4 4.4-12.2 1.2-3.7 2.6-7.4 3.2-8.2.6-.7.8-1.3.5-1.3-.4 0-.2-.9.4-2.1.6-1.1 1.3-2.8 1.5-3.7.2-.9 1.5-4.9 2.9-8.7 1.4-3.9 2.6-7.2 2.5-7.5 0-.3 1.1-3.4 2.4-7 4.3-11.5 7.1-20.1 9.2-28 .2-.8 1.3-4.2 2.5-7.5s2.3-6.7 2.5-7.5c.2-.8.8-2.9 1.4-4.5 1-3.1 4.2-13.6 8.2-26.5 1.2-4.1 2.4-8.2 2.5-9 .2-.8 1-3.9 1.9-6.7 3-10 4.7-15.8 5.5-19.3.5-1.9 1.6-6 2.5-9 .9-3 1.7-6.2 2-7 .2-.8 1.3-5.1 2.5-9.5s2.4-9.1 2.6-10.5c.3-1.4.7-3.2 1-4 .3-.8 2.1-7.6 3.9-15 1.9-7.4 3.8-14.9 4.3-16.7.6-1.7.8-3.4.5-3.6-.2-.3 0-1.4.6-2.5.6-1 1.2-3.4 1.5-5.3.3-1.9 1.9-9 3.5-15.9 1.7-6.9 3.3-14.3 3.6-16.5.4-2.2 1.1-5.8 1.7-8 .6-2.2 1.2-4.7 1.3-5.5.2-1.6 3.6-18.3 5.7-28 .6-3 1.3-6.4 1.5-7.5.5-3.7 2.4-13.9 3.3-18.1.6-2.3 1.2-6.3 1.5-9 .4-2.6.8-5.1 1-5.4.2-.3.6-3 1-6 .3-3 1-7.1 1.5-9 .5-1.9 1.2-6 1.5-9 .4-3 .8-5.7 1-6.1.3-.3.7-2.6 1-5 1-8.3 3.6-25.4 4-26.9.3-.8.7-4.6 1-8.3.2-3.8.7-7.2 1-7.6.2-.5.7-3.7 1-7.2.3-3.5.9-8.7 1.5-11.4.5-2.8 1.2-7.9 1.5-11.5.3-3.6.8-7.6 1-9 .3-1.4.7-5.2 1-8.5.2-3.3.9-9.8 1.4-14.5 1.8-15.3 3.2-29.4 3.6-36 .1-3.6.8-12.6 1.4-20 .6-7.4 1.5-19.4 2.1-26.5 1.4-17.4 1.4-245.6 0-263-.6-7.2-1.5-19.1-2.1-26.5-.6-7.4-1.2-16.4-1.4-20-.2-3.6-.8-10.6-1.4-15.5-1.3-11.5-3.1-28.6-3.6-35-.3-2.8-.7-6.6-1-8.5-.3-1.9-.7-6.2-1-9.5-.3-3.3-1-8.3-1.5-11-.5-2.8-1.2-7.9-1.5-11.4-.3-3.6-.8-6.8-1.1-7.2-.2-.4-.7-3.8-.9-7.6-.3-3.7-.7-7.5-1-8.3-.4-1.4-3-18.3-4-26.4-.2-2.1-.7-4.6-.9-5.5-.3-.9-.8-3.6-1.1-6.1-.3-2.5-.9-6.8-1.5-9.5-1.5-8-3.2-17.8-3.6-21-.2-1.7-.8-5-1.3-7.5-1-4.9-3-15.3-3.4-18.5-.2-1.1-.9-4.5-1.5-7.5-1.4-6.4-5.3-25.6-5.8-28.5-2.4-12.9-19.1-84-20.8-88.5-.3-.8-.8-2.6-1-4-.4-2.1-1.9-7.9-5.1-20-5.2-19.4-8.8-32.1-17.1-59.5-.8-2.8-2.3-7.9-3.3-11.5-1-3.6-2.3-7.4-2.8-8.5-.6-1.1-1.1-2.4-1.1-2.8.1-.8-10.8-34.6-12.3-38.2-.4-1.1-2.8-8.1-5.3-15.5-6.1-18.2-16.1-46.1-20.3-56.5-1.1-2.8-4.4-11.1-7.3-18.5-6.2-16.2-21.3-53.3-24.7-61-1.4-3-2.8-6.4-3.3-7.5-.8-2-4.6-10.4-8.1-18.3-1-2.3-2.7-6.1-3.8-8.5-13.1-29.4-32.7-69.7-51.3-105.7-10.5-20.2-23.7-44.6-28.8-53.5-1.3-2.2-3.1-5.5-4.1-7.3-1-1.8-2.2-3.8-2.7-4.5-.5-.7-2.2-3.7-3.8-6.7-1.5-3-3.6-6.6-4.5-8-.9-1.4-2.6-4.2-3.8-6.3-1.1-2-3.1-5.4-4.2-7.5-1.2-2-2.9-4.8-3.9-6.2-.9-1.4-2-3.2-2.3-4-.4-.8-2.5-4.4-4.7-7.9-2.2-3.4-4-6.5-4-6.7 0-.2-2.5-4.2-5.5-8.9-3-4.6-5.5-8.7-5.5-9 0-.3-1.6-2.7-3.5-5.4-1.9-2.6-3.5-5.2-3.5-5.5 0-.4-1-2.2-2.3-3.9-1.2-1.8-2.7-4-3.2-4.9-.6-.9-2.8-4.3-4.9-7.5-3.7-5.4-11.9-17.9-14.1-21.5-1.9-3.1-23-33.9-30.2-44.1-2-2.9-5.4-7.7-7.5-10.7-2.2-3-5.9-8.2-8.3-11.5-2.4-3.3-5.7-7.8-7.2-10-1.6-2.2-8.2-11.1-14.8-19.9-6.6-8.7-13.6-17.9-15.5-20.5-1.9-2.5-6.2-8-9.5-12.1-3.2-4.1-9.3-11.8-13.5-17-82.8-104.5-187.6-211.3-293.4-299.4C3043.6 208.4 2659.5 47.7 2252 7.5c-69-6.8-69.9-6.8-186-7-58.6-.2-113.7.1-122.5.6zm1408 1224.2c5.7 2.7 9 3.6 16.9 4.7 4.8.7 7.7 1.8 9.8 3.5 1.6 1.3 4.8 3 7.1 3.6 2.3.6 5.6 2.4 7.4 3.9 1.7 1.6 4.8 3.4 6.7 4.1 2 .7 3.9 2.1 4.2 3.1.3 1 2.3 2.7 4.5 3.8 2.1 1.1 3.9 2.7 3.9 3.6 0 .8 1.3 2.3 3 3.2 1.6.9 3.4 2.9 3.9 4.4.5 1.5 1.9 3.3 3.1 4 1.2.7 3.3 3.7 4.6 6.5 1.3 2.9 3.3 5.7 4.3 6.2 1 .6 2.4 3 3 5.5.6 2.4 2.3 5.8 3.7 7.6 2.1 2.5 3 5.1 4 12.3.8 5.3 2.3 10.8 3.6 13.1l2.3 4.1v891l-2.7 7.5c-1.6 4.6-3.1 11.5-3.7 18-1 8.8-1.5 10.8-3.5 13-1.6 1.6-2.8 4.6-3.5 8.3-.6 3.5-2 7-3.5 8.8-1.3 1.5-3 4.5-3.7 6.6-.6 2.1-2.5 5.3-4 7-1.5 1.8-3.3 5-3.8 7.1-.7 2.3-2.3 4.7-4.1 6-1.6 1.3-3 2.8-3 3.4 0 .7-1.4 2.6-3.1 4.2-1.6 1.7-7 7.3-11.9 12.3-4.9 5.1-9.3 9.3-9.9 9.3-.5 0-1.9 1.3-3.1 3-1.2 1.6-3.2 3.3-4.6 3.6-1.3.3-3.2 1.7-4.2 2.9-1 1.3-3.6 3.1-5.8 4-2.1.9-5 2.7-6.4 4-1.4 1.4-4.8 3.1-7.4 3.9-2.7.8-5.9 2.5-7.3 3.8-1.4 1.3-4.8 2.7-8.2 3.4-3.1.7-7.4 2.3-9.4 3.7-2.5 1.7-5.8 2.8-9.5 3.2-10.4 1.1-17.4 2.6-21.5 4.7-3.7 2-5.6 2.2-24.6 2.2-20.5 0-20.7 0-29.6-3.1-4.9-1.7-12.4-3.4-16.5-3.8-5.7-.5-8.1-1.2-10.2-3-2.8-2.3-8.5-4.5-12-4.5-.9 0-3-1.1-4.7-2.5-1.6-1.4-5.1-3.3-7.6-4.2-2.6-.8-4.9-2.2-5.2-3-.6-1.6-7.4-5.3-9.7-5.3-.8 0-2.4-1.4-3.6-3-1.2-1.7-2.8-3-3.5-3-1.4 0-11.4-9.3-28.8-26.7-6-6.1-64.9-65-65.8-65.8l-3.5-3.5c-1.3-1.4-2.8-2.9-3.3-3.3-1-1-5.4-5.3-6.8-6.8-.4-.5-3.7-3.8-7.3-7.3-3.6-3.6-6.9-7-7.5-7.6-.5-.6-2.1-2.1-3.5-3.4-1.4-1.4-3-3-3.6-3.7-.6-.6-4.1-4.1-7.8-7.6-3.6-3.6-6.6-6.9-6.6-7.3 0-.5-.9-1.1-2-1.5-1.1-.3-2.7-1.9-3.6-3.5-1-1.5-2.8-3.3-4.1-3.9-1.3-.6-2.8-2.2-3.4-3.5-.6-1.3-2.2-2.9-3.4-3.4-1.3-.6-3.1-2.4-4.1-4.1-.9-1.6-2.8-3.4-4.1-4-1.3-.6-2.8-2.2-3.4-3.5-.6-1.3-2.2-2.9-3.5-3.5-1.3-.6-2.9-2.1-3.5-3.4-.6-1.3-2.4-3.1-3.9-4.1-1.6-.9-3.1-2.5-3.5-3.5-.3-1-1.7-2.4-3.1-3.2-1.4-.7-3.2-2.6-4-4-.7-1.5-2.3-3-3.4-3.4-1.1-.3-2.7-1.9-3.6-3.5-1-1.5-2.8-3.3-4.1-3.9-1.3-.6-2.8-2.2-3.4-3.5-.6-1.3-2.2-2.9-3.5-3.5-1.3-.6-2.9-2.1-3.5-3.4-.6-1.3-2.3-3.1-3.8-4-1.5-.9-3.3-2.7-4-4-.7-1.4-2.4-3-3.7-3.6-1.3-.6-2.9-2.1-3.5-3.4-.6-1.3-2.4-3.1-3.9-4.1-1.6-.9-3.1-2.5-3.5-3.5-.3-1-1.7-2.4-3.1-3.2-1.4-.7-3.2-2.5-4-4-1.6-3.2-10-6.5-13.6-5.3-2.1.6-194.7 192.9-553.3 552.4-75.3 75.5-143.3 142.9-151 149.6-7.7 6.8-15.3 13.6-17 15.1-1.6 1.6-4.4 3.5-6.2 4.2-1.7.7-3.4 1.9-3.7 2.7-.3.8-2.7 2.4-5.3 3.5-2.7 1.1-5.9 3.1-7.3 4.3-1.4 1.3-4.9 3.1-7.8 4.1-2.9.9-5.6 2.3-5.8 3-.6 1.5-4.2 3-9.2 4-1.8.4-4.6 1.8-6.2 3.1-1.9 1.7-5.4 3-10.5 3.9-4.2.8-9.5 2.6-11.8 3.9-3.3 2-6.7 2.7-15.6 3.6-6.3.7-14.4 2.2-18 3.3-6 2-8.7 2.2-30.6 2.2-22 0-24.6-.2-31-2.2-3.8-1.2-11.9-2.7-17.8-3.3-10.6-1.1-12.2-1.5-18.2-4.7-1.6-.9-6.1-2.2-9.9-2.9-4.2-.8-7.8-2.2-9.1-3.4-1.3-1.2-4.9-2.8-8.1-3.6-3.2-.9-7.1-2.6-8.6-3.9-1.5-1.3-4.4-2.9-6.5-3.6-2.1-.6-5.2-2.4-7-3.9-1.7-1.6-4.7-3.3-6.7-4-2-.6-4.9-2.5-6.5-4.1-1.6-1.6-3.6-2.9-4.5-2.9-.8 0-2-.9-2.6-2-.6-1.1-2.8-3.1-4.8-4.4-2-1.4-7.3-5.7-11.7-9.6-4.4-4-128-127.1-274.6-273.6-282.9-282.5-268.2-268.4-274.2-265.2-1.2.6-76.4 75.3-167.1 166.1-90.7 90.7-167.5 167.1-170.7 169.7-3.2 2.7-6.8 5.8-8 6.9-1.3 1.2-2.9 2.1-3.6 2.1-.8 0-2.6 1.3-4.1 2.8-1.5 1.6-4.7 3.4-7.2 4.1-2.5.7-5.6 2.3-7 3.6-1.8 1.6-5 2.8-11 3.9-4.7.9-11.2 2.6-14.5 3.7-5.1 1.9-8.2 2.2-20 2.2-12.4 0-14.9-.3-21.5-2.5-4.1-1.4-10.7-3.1-14.7-3.8-4.9-.8-8-1.9-9.6-3.4-1.4-1.3-4.8-3.1-7.8-4-2.9-1-6.1-2.8-7.1-4.2-1.1-1.3-2.6-2.4-3.4-2.4-.8 0-3.1-1.5-5.1-3.3-3.8-3.3-180.5-179.8-185.5-185.3-1.5-1.6-2.8-3.5-2.8-4.2 0-.6-1.3-2.6-2.9-4.4-1.6-1.8-3.6-5.5-4.5-8.2-.9-2.7-2.7-6.1-4-7.6-1.6-1.9-2.7-5.2-3.5-10.5-.7-4.2-2.2-10.2-3.4-13.4-1.8-4.8-2.1-7.8-2.1-21.1 0-14.1.2-16.2 2.6-23 1.4-4.1 2.9-10.1 3.2-13.2.5-4 1.5-6.7 3.5-9.2 1.6-2 3.4-5.6 4-8.1.6-2.5 1.8-4.8 2.7-5.2.8-.3 2.6-2.7 4-5.4 1.3-2.7 2.8-4.9 3.2-4.9.5 0 2.3-1.9 4-4.3 3.3-4.5 502.4-503.7 513.2-513.2 3.6-3.1 7.2-6.5 8.1-7.5.8-1 3-2.5 4.7-3.4 1.7-.9 3.9-2.8 4.8-4.1.9-1.4 2.3-2.5 3.1-2.5.8 0 2.8-1.3 4.4-2.9 1.6-1.6 4.9-3.7 7.3-4.6 2.5-1 5.5-2.8 6.7-4.1 1.3-1.3 4-2.9 6-3.4 2.1-.6 5.2-2.2 6.8-3.6 1.6-1.3 5.6-3.2 8.8-4 3.2-.8 6.7-2.4 7.8-3.4 1.1-1.1 5.3-2.6 9.3-3.5 3.9-.8 9.3-2.6 11.9-3.9 3.5-1.8 7.7-2.8 15.8-3.7 6-.6 13.2-1.8 16-2.6 2.7-.7 6.8-1.9 9-2.5 5.2-1.3 42.8-1.3 48 .1 2.2.5 6.3 1.7 9 2.4 2.8.8 9.9 2 15.9 2.6 10.4 1.2 12.3 1.6 17.7 4.6 1.4.8 5.9 2.2 10 3 4 .9 8.3 2.4 9.4 3.5 1.1 1 4.6 2.6 7.8 3.4 3.2.8 7.2 2.7 8.8 4.1 1.7 1.4 5.1 3 7.5 3.6 2.5.6 4.9 1.9 5.4 2.8.4.9 3.2 2.8 6.1 4.1 2.9 1.4 6.5 3.7 8 5.2 1.5 1.6 3.4 2.8 4.3 2.8.8 0 2.4 1.3 3.6 3 1.2 1.6 2.6 3 3.2 3 .5 0 5.5 3.9 10.9 8.7 5.5 4.9 129.6 128.4 275.8 274.5l265.9 265.8h9.3l57.1-56.8c200.1-199 470.8-470.5 471.4-472.8.8-3.2-1.1-9.9-3.3-11.6-.8-.7-4.4-4.2-7.9-7.8-3.6-3.6-6.8-6.9-7.3-7.3-1.3-1.3-12.7-12.7-13.7-13.8-1-1-35.3-35.2-37.1-36.9-.6-.7-2.2-2.3-3.6-3.7-1.4-1.4-3-2.9-3.5-3.5-.6-.5-2.1-2.1-3.5-3.5l-3.4-3.4c-.4-.5-1.9-2-3.3-3.4-3.2-3.1-5.4-5.3-8.5-8.5-1.4-1.4-2.9-3-3.6-3.5l-3.5-3.5c-1.3-1.4-2.8-2.9-3.3-3.3-.5-.5-2.1-2.1-3.6-3.5-1.4-1.5-3-3.1-3.5-3.5-.4-.5-1.9-2-3.3-3.4-3.1-3.2-5.1-5.2-8.1-8.1-1.3-1.3-2.8-2.8-3.3-3.2-.4-.5-2-2.1-3.5-3.5-1.4-1.5-3-3.1-3.5-3.6-.4-.5-1.9-2-3.3-3.3l-3.5-3.5c-.5-.7-2.1-2.2-3.5-3.6-3.2-3.1-5.4-5.3-8.5-8.5-1.4-1.4-2.9-3-3.6-3.5l-3.5-3.5c-1.3-1.4-2.8-2.9-3.3-3.3-1-1-5.4-5.3-6.9-6.9-1.2-1.3-6.7-6.8-8-8-1.6-1.5-5.9-5.9-6.9-6.9-.4-.5-1.9-2-3.3-3.3l-3.5-3.5c-.5-.7-2.1-2.2-3.5-3.6-3.2-3.1-5.4-5.3-8.5-8.5-1.4-1.4-2.9-3-3.6-3.5l-3.5-3.5c-1.3-1.4-2.8-2.9-3.3-3.3l-3.4-3.4c-1.4-1.4-3.1-3-3.7-3.6-.7-.7-2.5-2.6-4.1-4.2-1.6-1.7-3.4-3.5-4-4-7.8-7.3-17.3-17.9-18.6-20.8-.7-1.5-1.9-3-2.8-3.4-.9-.3-2.7-2.9-3.9-5.8-1.3-2.8-3.5-6.3-5-7.8-1.4-1.4-2.6-3.5-2.6-4.5s-1.4-3.8-3-6.1c-1.7-2.2-3.5-6.4-4.1-9.1-.6-2.8-2.2-6.4-3.6-8-1.9-2.4-2.7-4.9-3.7-12.7-.7-5.5-2.4-12.2-3.7-15.3-2.3-5.3-2.4-6.4-2.4-29.5 0-22.8.1-24.2 2.2-28.5 1.3-2.7 2.9-8.9 3.8-15.3 1.2-8.8 2-11.5 4-13.8 1.5-1.9 2.7-4.9 3.1-8 .4-3.3 1.7-6.2 3.6-8.6 1.6-2 3.4-5.6 4-8 .6-2.4 1.9-4.9 2.8-5.6 1-.7 2.9-3.5 4.2-6.2 1.2-2.8 3.1-5.6 4.2-6.4 1-.7 2.4-2.8 3.2-4.7.7-1.8 2.3-3.5 3.4-3.9 1.1-.3 2-1.1 2-1.7 0-.5 1.8-2.9 4-5.2 2.2-2.2 5.9-6.2 8.3-8.7 2.4-2.6 5.8-5.4 7.5-6.3 1.7-.9 3.3-2.4 3.6-3.4.4-1 2.2-2.6 4-3.5 1.9-.9 3.7-2.5 4.1-3.6.4-1.3 1.8-2.3 4.2-2.7 2-.4 5.2-2.1 7.2-3.9 2-1.8 4.9-3.5 6.5-3.9 1.6-.4 4.8-2 7-3.5 2.3-1.6 6.7-3.4 9.9-4 3.4-.8 6.8-2.2 8.4-3.7 1.4-1.3 3.1-2.4 3.7-2.4 5.9-.1 20.5-2.3 25.7-4 3.6-1.1 10.3-2.4 15-2.9 4.8-.5 198-.8 445.9-.7 423.4.1 437.6.2 441.5 1.9z"/></svg>